<svg id="visual" viewBox="0 0 900 600" width="900" height="600" xmlns="http://www.w3.org/2000/svg" xmlns:xlink="http://www.w3.org/1999/xlink" version="1.1"><path d="M0 203L25 191.5C50 180 100 157 150 146.7C200 136.3 250 138.7 300 139.8C350 141 400 141 450 149C500 157 550 173 600 174.3C650 175.7 700 162.3 750 153C800 143.7 850 138.3 875 135.7L900 133L900 0L875 0C850 0 800 0 750 0C700 0 650 0 600 0C550 0 500 0 450 0C400 0 350 0 300 0C250 0 200 0 150 0C100 0 50 0 25 0L0 0Z" fill="#a855f7"></path><path d="M0 85L25 89.5C50 94 100 103 150 103.7C200 104.3 250 96.7 300 99.3C350 102 400 115 450 120.7C500 126.3 550 124.7 600 120.8C650 117 700 111 750 108.7C800 106.3 850 107.7 875 108.3L900 109L900 0L875 0C850 0 800 0 750 0C700 0 650 0 600 0C550 0 500 0 450 0C400 0 350 0 300 0C250 0 200 0 150 0C100 0 50 0 25 0L0 0Z" fill="#9e45f1"></path><path d="M0 52L25 57C50 62 100 72 150 77.5C200 83 250 84 300 81.7C350 79.3 400 73.7 450 74.2C500 74.7 550 81.3 600 77.2C650 73 700 58 750 54C800 50 850 57 875 60.5L900 64L900 0L875 0C850 0 800 0 750 0C700 0 650 0 600 0C550 0 500 0 450 0C400 0 350 0 300 0C250 0 200 0 150 0C100 0 50 0 25 0L0 0Z" fill="#9333ea"></path></svg>